HIERARCHY
ROOT Hips
{
	OFFSET 0.000000 71.427986 0.000000
	CHANNELS 6 Xposition Yposition Zposition Xrotation Yrotation Zrotation
	JOINT Pelvis
	{
		OFFSET 0.000000 0.000000 0.000000
		CHANNELS 3 Xrotation Yrotation Zrotation
		JOINT LeftUpLeg
		{
			OFFSET 6.797100 -2.508499 -1.318700
			CHANNELS 3 Xrotation Yrotation Zrotation
			JOINT LeftLeg
			{
				OFFSET 0.069008 -29.241863 0.690200
				CHANNELS 3 Xrotation Yrotation Zrotation
				JOINT LeftFoot
				{
					OFFSET -0.069008 -29.568123 -0.266800
					CHANNELS 3 Xrotation Yrotation Zrotation
					JOINT LeftToeBase
					{
						OFFSET 3.145500 -8.631000 16.059900
						CHANNELS 3 Xrotation Yrotation Zrotation
						End Site
						{
							OFFSET 0.000000 18.501587 0.000000
						}
					}
				}
			}
			JOINT Left_ShortSleeve
			{
				OFFSET 0.265923 -10.480953 1.153800
				CHANNELS 3 Xrotation Yrotation Zrotation
				End Site
				{
					OFFSET 1.725763 19.823879 0.000000
				}
			}
		}
		JOINT RightUpLeg
		{
			OFFSET -6.797100 -2.508499 -1.318700
			CHANNELS 3 Xrotation Yrotation Zrotation
			JOINT RightLeg
			{
				OFFSET -0.082453 -29.241932 0.688000
				CHANNELS 3 Xrotation Yrotation Zrotation
				JOINT RightFoot
				{
					OFFSET 0.082453 -29.568058 -0.264600
					CHANNELS 3 Xrotation Yrotation Zrotation
					JOINT RightToeBase
					{
						OFFSET -3.115300 -8.682800 16.113400
						CHANNELS 3 Xrotation Yrotation Zrotation
						End Site
						{
							OFFSET 0.000000 18.567114 0.000000
						}
					}
				}
			}
			JOINT Right_ShortSleeve
			{
				OFFSET -0.265923 -10.480953 1.153800
				CHANNELS 3 Xrotation Yrotation Zrotation
				End Site
				{
					OFFSET -1.725766 19.823910 0.000000
				}
			}
		}
	}
	JOINT Spine
	{
		OFFSET 0.000000 13.368103 0.470500
		CHANNELS 3 Xrotation Yrotation Zrotation
		JOINT Spine1
		{
			OFFSET 0.147000 13.837402 0.538800
			CHANNELS 3 Xrotation Yrotation Zrotation
			JOINT Spine2
			{
				OFFSET 0.168000 16.242897 -1.435500
				CHANNELS 3 Xrotation Yrotation Zrotation
				JOINT Neck
				{
					OFFSET 0.217200 18.631500 -1.679100
					CHANNELS 3 Xrotation Yrotation Zrotation
					JOINT Head
					{
						OFFSET 0.000000 6.599396 1.385900
						CHANNELS 3 Xrotation Yrotation Zrotation
						JOINT Hat
						{
							OFFSET -0.532200 27.220596 -10.096100
							CHANNELS 3 Xrotation Yrotation Zrotation
							End Site
							{
								OFFSET 0.000000 22.029861 0.000000
							}
						}
						JOINT HairD
						{
							OFFSET -10.777400 17.437393 -1.325900
							CHANNELS 3 Xrotation Yrotation Zrotation
							JOINT HairD1
							{
								OFFSET -3.290299 -11.051193 1.062200
								CHANNELS 3 Xrotation Yrotation Zrotation
								End Site
								{
									OFFSET 0.000000 11.579437 0.000000
								}
							}
						}
						JOINT HairB
						{
							OFFSET -10.777400 17.437393 1.467900
							CHANNELS 3 Xrotation Yrotation Zrotation
							JOINT HairB1
							{
								OFFSET -1.561200 -12.956299 3.590200
								CHANNELS 3 Xrotation Yrotation Zrotation
								End Site
								{
									OFFSET 0.000000 13.534866 0.000000
								}
							}
						}
						JOINT HairA
						{
							OFFSET 9.713100 17.437393 1.467900
							CHANNELS 3 Xrotation Yrotation Zrotation
							JOINT HairA1
							{
								OFFSET 1.561200 -12.956299 3.590200
								CHANNELS 3 Xrotation Yrotation Zrotation
								End Site
								{
									OFFSET 0.000000 13.534866 0.000000
								}
							}
						}
						JOINT HairC
						{
							OFFSET 9.713100 17.437393 -1.325900
							CHANNELS 3 Xrotation Yrotation Zrotation
							JOINT HairC1
							{
								OFFSET 3.290300 -11.051193 1.062200
								CHANNELS 3 Xrotation Yrotation Zrotation
								End Site
								{
									OFFSET 0.000000 11.579437 0.000000
								}
							}
						}
					}
				}
				JOINT LeftShoulder
				{
					OFFSET 5.101800 15.108002 -2.763700
					CHANNELS 3 Xrotation Yrotation Zrotation
					JOINT LeftArm
					{
						OFFSET 9.825497 2.506317 -1.597400
						CHANNELS 3 Xrotation Yrotation Zrotation
						JOINT LeftForeArm
						{
							OFFSET 21.966244 0.000000 0.000000
							CHANNELS 3 Xrotation Yrotation Zrotation
							JOINT LeftHand
							{
								OFFSET 33.879036 0.000000 0.000000
								CHANNELS 3 Xrotation Yrotation Zrotation
								JOINT LeftHandThumb1
								{
									OFFSET 6.715286 -2.359680 3.363841
									CHANNELS 3 Xrotation Yrotation Zrotation
									JOINT LeftHandThumb2
									{
										OFFSET 2.507072 -1.447464 1.447461
										CHANNELS 3 Xrotation Yrotation Zrotation
										JOINT LeftHandThumb3
										{
											OFFSET 2.898338 -1.673355 1.673357
											CHANNELS 3 Xrotation Yrotation Zrotation
											End Site
											{
												OFFSET -0.295959 3.727692 -0.131651
											}
										}
									}
								}
								JOINT LeftHandIndex1
								{
									OFFSET 14.190811 -0.254547 3.840278
									CHANNELS 3 Xrotation Yrotation Zrotation
									JOINT LeftHandIndex2
									{
										OFFSET 3.551727 0.000000 -0.000000
										CHANNELS 3 Xrotation Yrotation Zrotation
										JOINT LeftHandIndex3
										{
											OFFSET 2.894196 0.000000 0.000000
											CHANNELS 3 Xrotation Yrotation Zrotation
											End Site
											{
												OFFSET -1.000603 2.690872 0.366626
											}
										}
									}
								}
								JOINT LeftHandMiddle1
								{
									OFFSET 13.776489 0.000000 0.000000
									CHANNELS 3 Xrotation Yrotation Zrotation
									JOINT LeftHandMiddle2
									{
										OFFSET 3.438232 0.000000 0.000000
										CHANNELS 3 Xrotation Yrotation Zrotation
										JOINT LeftHandMiddle3
										{
											OFFSET 3.691551 0.000000 0.000000
											CHANNELS 3 Xrotation Yrotation Zrotation
											End Site
											{
												OFFSET -1.082298 3.499527 0.457670
											}
										}
									}
								}
								JOINT LeftHandRing1
								{
									OFFSET 13.966164 -0.268127 -3.067488
									CHANNELS 3 Xrotation Yrotation Zrotation
									JOINT LeftHandRing2
									{
										OFFSET 3.162567 0.000000 0.000000
										CHANNELS 3 Xrotation Yrotation Zrotation
										JOINT LeftHandRing3
										{
											OFFSET 3.324348 0.000000 0.000000
											CHANNELS 3 Xrotation Yrotation Zrotation
											End Site
											{
												OFFSET -0.861900 3.184998 0.405154
											}
										}
									}
								}
								JOINT LeftHandPinky1
								{
									OFFSET 13.131393 -0.168503 -5.746925
									CHANNELS 3 Xrotation Yrotation Zrotation
									JOINT LeftHandPinky2
									{
										OFFSET 2.849182 0.000000 0.000000
										CHANNELS 3 Xrotation Yrotation Zrotation
										JOINT LeftHandPinky3
										{
											OFFSET 2.805038 0.000000 0.000000
											CHANNELS 3 Xrotation Yrotation Zrotation
											End Site
											{
												OFFSET -0.882500 2.642609 0.325652
											}
										}
									}
								}
							}
							JOINT Left_Sleeve
							{
								OFFSET 6.592125 -0.646545 0.805568
								CHANNELS 3 Xrotation Yrotation Zrotation
								End Site
								{
									OFFSET -0.000179 20.275787 -0.000000
								}
							}
						}
					}
				}
				JOINT RightShoulder
				{
					OFFSET -5.731700 15.108002 -2.763700
					CHANNELS 3 Xrotation Yrotation Zrotation
					JOINT RightArm
					{
						OFFSET -9.825497 2.506317 -1.597400
						CHANNELS 3 Xrotation Yrotation Zrotation
						JOINT RightForeArm
						{
							OFFSET -21.966242 0.000000 0.000000
							CHANNELS 3 Xrotation Yrotation Zrotation
							JOINT RightHand
							{
								OFFSET -33.879032 0.000000 0.000000
								CHANNELS 3 Xrotation Yrotation Zrotation
								JOINT RightHandThumb1
								{
									OFFSET -6.715286 -2.359680 3.363841
									CHANNELS 3 Xrotation Yrotation Zrotation
									JOINT RightHandThumb2
									{
										OFFSET -2.507072 -1.447464 1.447461
										CHANNELS 3 Xrotation Yrotation Zrotation
										JOINT RightHandThumb3
										{
											OFFSET -2.898338 -1.673355 1.673357
											CHANNELS 3 Xrotation Yrotation Zrotation
											End Site
											{
												OFFSET 0.295959 3.727692 -0.131651
											}
										}
									}
								}
								JOINT RightHandIndex1
								{
									OFFSET -14.190811 -0.254547 3.840278
									CHANNELS 3 Xrotation Yrotation Zrotation
									JOINT RightHandIndex2
									{
										OFFSET -3.551727 0.000000 -0.000000
										CHANNELS 3 Xrotation Yrotation Zrotation
										JOINT RightHandIndex3
										{
											OFFSET -2.894196 0.000000 0.000000
											CHANNELS 3 Xrotation Yrotation Zrotation
											End Site
											{
												OFFSET 1.000603 2.690872 0.366626
											}
										}
									}
								}
								JOINT RightHandMiddle1
								{
									OFFSET -13.776489 0.000000 0.000000
									CHANNELS 3 Xrotation Yrotation Zrotation
									JOINT RightHandMiddle2
									{
										OFFSET -3.438232 0.000000 0.000000
										CHANNELS 3 Xrotation Yrotation Zrotation
										JOINT RightHandMiddle3
										{
											OFFSET -3.691551 0.000000 0.000000
											CHANNELS 3 Xrotation Yrotation Zrotation
											End Site
											{
												OFFSET 1.082298 3.499527 0.457670
											}
										}
									}
								}
								JOINT RightHandRing1
								{
									OFFSET -13.966164 -0.268127 -3.067488
									CHANNELS 3 Xrotation Yrotation Zrotation
									JOINT RightHandRing2
									{
										OFFSET -3.162567 0.000000 0.000000
										CHANNELS 3 Xrotation Yrotation Zrotation
										JOINT RightHandRing3
										{
											OFFSET -3.324348 0.000000 0.000000
											CHANNELS 3 Xrotation Yrotation Zrotation
											End Site
											{
												OFFSET 0.861900 3.184998 0.405154
											}
										}
									}
								}
								JOINT RightHandPinky1
								{
									OFFSET -13.131393 -0.168503 -5.746925
									CHANNELS 3 Xrotation Yrotation Zrotation
									JOINT RightHandPinky2
									{
										OFFSET -2.849182 0.000000 0.000000
										CHANNELS 3 Xrotation Yrotation Zrotation
										JOINT RightHandPinky3
										{
											OFFSET -2.805038 0.000000 0.000000
											CHANNELS 3 Xrotation Yrotation Zrotation
											End Site
											{
												OFFSET 0.882500 2.642609 0.325652
											}
										}
									}
								}
							}
							JOINT Right_Sleeve
							{
								OFFSET -6.592125 -0.646545 0.805568
								CHANNELS 3 Xrotation Yrotation Zrotation
								End Site
								{
									OFFSET 0.000179 20.275787 -0.000000
								}
							}
						}
					}
				}
				JOINT Bind_Right_JacketString
				{
					OFFSET -3.534800 11.969597 7.200700
					CHANNELS 3 Xrotation Yrotation Zrotation
					JOINT Bind_Right_JacketString1
					{
						OFFSET -0.319900 -6.102600 2.794100
						CHANNELS 3 Xrotation Yrotation Zrotation
						End Site
						{
							OFFSET 0.000000 6.719452 0.000000
						}
					}
				}
				JOINT Bind_Left_JacketString
				{
					OFFSET 2.904800 11.969597 7.200700
					CHANNELS 3 Xrotation Yrotation Zrotation
					JOINT Bind_Left_JacketString1
					{
						OFFSET 0.364800 -5.904503 3.186800
						CHANNELS 3 Xrotation Yrotation Zrotation
						End Site
						{
							OFFSET 0.000000 6.719513 0.000000
						}
					}
				}
				JOINT HairE
				{
					OFFSET 5.915200 17.612701 -11.592200
					CHANNELS 3 Xrotation Yrotation Zrotation
					JOINT HairE1
					{
						OFFSET 0.289200 -7.171898 -1.284500
						CHANNELS 3 Xrotation Yrotation Zrotation
						End Site
						{
							OFFSET 0.000000 7.291756 0.000000
						}
					}
				}
				JOINT HairF
				{
					OFFSET -0.864800 17.612701 -11.592200
					CHANNELS 3 Xrotation Yrotation Zrotation
					JOINT HairF1
					{
						OFFSET 0.000000 -14.087097 -2.127501
						CHANNELS 3 Xrotation Yrotation Zrotation
						End Site
						{
							OFFSET 0.000000 14.246841 0.000000
						}
					}
				}
				JOINT HairG
				{
					OFFSET -8.087700 17.612701 -11.592200
					CHANNELS 3 Xrotation Yrotation Zrotation
					JOINT HairG1
					{
						OFFSET -0.293600 -6.081398 -0.910100
						CHANNELS 3 Xrotation Yrotation Zrotation
						End Site
						{
							OFFSET 0.000000 6.156120 0.000000
						}
					}
				}
			}
		}
	}
	JOINT Pouch
	{
		OFFSET 0.000000 4.394501 10.847300
		CHANNELS 3 Xrotation Yrotation Zrotation
		End Site
		{
			OFFSET 0.000000 21.880577 0.000000
		}
	}
	JOINT Bag
	{
		OFFSET -13.229000 4.813004 -0.593300
		CHANNELS 3 Xrotation Yrotation Zrotation
		End Site
		{
			OFFSET 0.000000 21.880577 0.000000
		}
	}
	JOINT OccupyGuyFacialAnim_Joint
	{
		OFFSET 1.000000 -70.206398 -1.655000
		CHANNELS 3 Xrotation Yrotation Zrotation
		End Site
		{
			OFFSET 0.000000 21.880577 0.000000
		}
	}
}
MOTION
Frames: 4
Frame Time: 0.016667
-1.731601 66.319969 0.975241 -5.660097 -42.389305 -2.540635 -0.000000 0.000001 -0.000000 -24.570060 5.259024 11.668287 36.407941 -12.759692 2.214781 -9.696279 0.924844 -9.322646 -0.000000 0.000000 0.000000 -0.000000 0.000002 0.000003 -0.609944 -15.102537 -16.070624 33.786647 19.124103 -4.619280 -31.745640 -1.586571 4.305194 0.000000 -0.000001 0.000000 -0.000000 -0.000002 0.000001 5.902007 0.470548 -0.196778 11.805242 0.991271 -0.356038 11.805240 0.991258 -0.356033 5.454846 -28.042002 -1.570756 -9.679885 -42.734550 2.179726 0.000000 0.000000 -0.000002 0.000000 0.000000 -0.000002 0.000000 0.000000 -0.000002 0.000000 0.000000 -0.000001 0.000000 0.000000 0.000000 0.000000 0.000000 -0.000001 0.000000 0.000000 0.000000 0.000000 0.000000 -0.000002 0.000000 0.000000 -0.000002 0.953423 -3.294074 -6.337550 -7.803595 10.695489 -60.595697 -1.858049 -56.426337 -5.060462 4.516205 -4.170934 22.267597 11.334894 9.730366 -4.479180 3.334382 8.219283 1.772102 -0.000001 -0.000000 0.000001 2.657364 -3.651121 -37.231474 -2.225264 -2.598659 -50.721961 0.000002 0.000001 0.000002 0.107957 6.609313 -47.483878 -2.786365 -4.412146 -56.251256 -0.000000 0.000000 -0.000001 -2.805069 11.224122 -62.315374 -2.190474 -4.064435 -66.809290 -0.000001 0.000001 -0.000001 -6.755478 4.974046 -66.027978 -1.326977 -6.176960 -73.865586 0.000001 -0.000000 0.000001 0.000003 -0.000002 0.000003 1.781019 9.143862 7.041879 5.733458 -24.152582 68.587653 -7.143971 60.700253 7.121752 7.495344 6.265628 -16.551761 2.659600 -9.639239 12.705348 9.977284 -18.153786 0.046817 -0.000001 0.000000 0.000003 3.448084 -2.832165 46.578123 -2.544542 2.250461 60.768890 -0.000003 -0.000003 0.000003 -1.797300 -0.803634 42.426885 -4.426282 4.278485 82.714574 0.000004 0.000001 -0.000002 -4.363424 -0.803112 50.285362 -4.892168 5.732345 89.686005 0.000001 -0.000001 -0.000003 -8.591762 0.616665 50.078845 -5.070526 9.380845 93.712210 -0.000002 -0.000001 -0.000003 -0.000002 0.000001 -0.000001 -0.000001 0.000001 -0.000001 -0.000002 0.000001 -0.000001 -0.000001 0.000001 -0.000001 -0.000001 0.000001 -0.000001 -0.000001 0.000001 -0.000001 -0.000002 0.000001 -0.000001 -0.000001 0.000001 -0.000001 -0.000001 0.000001 -0.000001 -0.000001 0.000001 -0.000001 -0.000002 0.000001 -0.000001 -0.000000 0.000001 -0.000000 -0.000000 0.000001 -0.000000 -0.000000 0.000001 -0.000000 
-1.773584 66.380188 0.949528 -5.747467 -44.305026 -2.681833 0.000000 -0.000001 0.000000 -24.001242 5.670763 12.147359 36.081045 -11.456009 2.055932 -9.802360 0.981031 -9.703012 -0.000000 -0.000000 0.000000 -0.000001 0.000003 0.000001 -1.515430 -14.966918 -16.328127 34.065633 19.726662 -4.949760 -31.341341 -1.552163 4.486263 0.000000 0.000002 -0.000000 0.000000 0.000000 -0.000002 5.947628 0.207913 -0.150684 11.895481 0.464791 -0.236211 11.895481 0.464803 -0.236216 5.195389 -27.982377 -1.762660 -9.294759 -43.262825 2.943801 0.000000 0.000001 -0.000001 0.000000 0.000001 -0.000001 0.000000 0.000001 -0.000001 0.000000 0.000001 -0.000000 0.000000 -0.000001 -0.000002 0.000000 0.000001 -0.000000 0.000000 -0.000001 -0.000002 0.000000 0.000001 -0.000001 0.000000 0.000001 -0.000001 0.886147 -3.734526 -6.257957 -7.277724 11.319156 -60.862327 -1.912525 -56.844075 -5.070186 4.598255 -4.482966 22.325455 11.166510 9.800975 -4.305336 3.299757 8.317252 1.736550 0.000001 -0.000001 -0.000001 2.430046 -3.828129 -36.215534 -2.114146 -2.506291 -49.528427 0.000002 -0.000003 -0.000001 0.215177 6.756708 -46.504484 -2.677653 -4.338600 -55.049983 0.000002 0.000001 -0.000006 -2.571705 11.355754 -61.525804 -2.125226 -4.036819 -65.648370 -0.000000 -0.000001 -0.000002 -6.144472 5.321295 -65.117261 -1.302553 -6.170226 -72.693676 -0.000001 -0.000001 0.000001 -0.000000 -0.000001 0.000002 1.849871 8.523529 7.171790 5.962383 -24.111205 68.526987 -7.077259 61.206322 7.218181 7.457454 6.199113 -16.983236 2.643633 -9.750543 12.704193 10.045730 -18.113347 0.095442 -0.000000 0.000001 0.000003 3.693288 -2.557019 47.479903 -2.589269 2.274982 61.275389 -0.000001 -0.000003 -0.000002 -1.828330 -0.767093 43.027784 -4.489851 4.286448 83.433629 0.000005 0.000001 -0.000002 -4.453581 -0.817799 50.903214 -4.955579 5.732755 90.416999 -0.000003 -0.000003 0.000003 -8.704314 0.527741 50.621623 -5.118167 9.370074 94.249507 -0.000003 0.000004 -0.000002 0.000001 -0.000002 0.000002 0.000001 0.000000 -0.000000 0.000003 0.000000 -0.000001 0.000001 0.000000 -0.000000 0.000001 0.000000 -0.000000 0.000001 0.000000 -0.000000 0.000003 0.000000 -0.000000 0.000001 0.000000 -0.000000 0.000001 0.000000 -0.000000 0.000001 0.000000 -0.000000 0.000003 0.000000 -0.000000 0.000000 -0.000001 0.000000 0.000000 -0.000001 0.000000 0.000000 -0.000001 0.000000 
-1.819747 66.440933 0.919756 -5.872079 -46.227704 -2.833527 0.000000 0.000001 0.000000 -23.387959 6.104801 12.596651 35.733101 -10.145814 1.892195 -9.893450 1.038603 -10.088468 -0.000000 -0.000000 -0.000000 -0.000000 0.000001 0.000003 -2.406445 -14.790139 -16.541016 34.371288 20.211399 -5.303316 -30.937967 -1.523612 4.685669 0.000000 0.000001 -0.000000 0.000000 -0.000001 0.000001 5.994621 -0.059163 -0.107638 11.989269 -0.070021 -0.121170 11.989279 -0.070032 -0.121169 4.858850 -27.854900 -2.018459 -8.864683 -43.760260 3.691640 -0.000000 -0.000001 -0.000000 -0.000000 -0.000001 -0.000000 -0.000000 -0.000001 -0.000001 -0.000000 -0.000001 -0.000000 0.000001 -0.000001 -0.000002 -0.000000 -0.000001 -0.000000 0.000001 -0.000001 -0.000002 -0.000000 -0.000001 -0.000000 -0.000000 -0.000001 -0.000000 0.810236 -4.308838 -6.381126 -6.676087 12.150740 -60.876718 -2.277394 -57.498657 -5.268929 4.466195 -4.693810 22.282246 10.967464 9.825533 -4.124768 3.258306 8.415870 1.703281 -0.000001 0.000002 0.000001 2.194171 -4.002788 -35.091128 -1.993703 -2.401491 -48.208920 0.000002 -0.000002 0.000001 0.327770 6.910716 -45.419751 -2.561330 -4.255988 -53.740765 0.000000 0.000000 0.000001 -2.325151 11.481143 -60.605484 -2.055398 -4.005508 -64.391267 0.000001 0.000001 -0.000001 -5.502787 5.688523 -64.103108 -1.276561 -6.162465 -71.433841 -0.000000 -0.000000 0.000001 -0.000003 -0.000002 -0.000000 1.951313 7.799975 7.121223 6.182275 -23.943571 68.623826 -6.650489 61.549218 7.002531 7.654140 6.217741 -17.779939 2.794220 -9.711136 12.808117 10.023116 -18.127599 0.049083 0.000002 0.000000 0.000003 3.955471 -2.272777 48.348020 -2.630135 2.296971 61.736905 -0.000003 0.000000 0.000002 -1.858067 -0.736076 43.602903 -4.552193 4.293549 84.138758 0.000001 -0.000004 0.000002 -4.541486 -0.832898 51.507491 -5.016379 5.732363 91.119737 0.000000 -0.000002 0.000002 -8.806171 0.435156 51.132043 -5.163194 9.357123 94.720790 0.000003 0.000000 -0.000001 0.000001 -0.000002 0.000001 -0.000001 -0.000003 0.000002 -0.000001 0.000002 -0.000002 -0.000001 -0.000003 0.000001 -0.000001 -0.000003 0.000001 -0.000001 -0.000003 0.000002 -0.000001 0.000002 -0.000001 -0.000001 -0.000003 0.000001 -0.000001 -0.000003 0.000001 -0.000001 -0.000003 0.000002 -0.000001 0.000002 -0.000001 0.000000 0.000001 0.000000 0.000000 0.000001 0.000000 0.000000 0.000001 0.000000 
-1.865084 66.497017 0.891904 -6.025556 -48.186947 -3.004827 0.000000 0.000002 0.000000 -22.743435 6.521110 13.007425 35.402732 -8.766301 1.743324 -9.988977 1.101983 -10.502767 -0.000000 -0.000002 -0.000000 -0.000002 0.000001 -0.000000 -3.316952 -14.597344 -16.738825 34.709027 20.691102 -5.663314 -30.515786 -1.503571 4.910567 0.000000 0.000001 -0.000000 0.000001 -0.000001 -0.000000 6.034601 -0.347817 -0.061306 12.069947 -0.647003 0.003706 12.069944 -0.647015 0.003708 4.521425 -27.652193 -2.326647 -8.508145 -44.111421 4.370730 -0.000000 -0.000001 0.000002 -0.000000 -0.000001 0.000002 -0.000000 -0.000001 0.000001 -0.000000 -0.000001 0.000001 0.000000 -0.000001 -0.000001 -0.000000 -0.000001 0.000001 0.000000 -0.000001 -0.000001 -0.000000 -0.000001 0.000002 -0.000000 -0.000001 0.000002 0.756119 -4.664562 -6.306328 -6.104449 12.854890 -61.074862 -2.488526 -57.874843 -5.355650 4.470211 -4.729152 21.933216 10.762677 9.805505 -3.951554 3.232088 8.534449 1.656949 0.000001 0.000001 -0.000004 1.952094 -4.165031 -33.893437 -1.868550 -2.287451 -46.810777 -0.000000 0.000000 -0.000000 0.445425 7.069496 -44.252451 -2.441593 -4.166766 -52.371831 0.000001 -0.000004 -0.000000 -2.065089 11.603890 -59.582916 -1.981964 -3.970576 -63.058519 -0.000001 0.000001 -0.000001 -4.835925 6.085373 -62.981570 -1.248571 -6.153391 -70.072311 0.000002 -0.000000 0.000001 -0.000002 -0.000001 0.000001 2.018771 7.202346 7.250129 6.408705 -23.946232 68.399864 -6.276848 62.142441 6.935163 7.705298 6.072068 -18.489232 3.013024 -9.639057 12.943740 9.983779 -18.171732 -0.016018 -0.000001 -0.000000 0.000004 4.245901 -1.998548 49.180436 -2.670625 2.318278 62.191201 -0.000004 0.000000 0.000002 -1.884923 -0.716122 44.128835 -4.613443 4.299704 84.829269 0.000005 -0.000000 -0.000003 -4.614527 -0.847609 52.003739 -5.073337 5.731339 91.776180 0.000002 0.000003 -0.000001 -8.899400 0.347934 51.604617 -5.216875 9.348926 95.474508 0.000003 0.000003 -0.000001 0.000004 -0.000000 0.000000 0.000001 0.000005 -0.000001 0.000001 -0.000002 0.000001 0.000001 0.000005 -0.000001 0.000001 0.000005 -0.000001 0.000001 0.000005 -0.000001 0.000001 -0.000002 0.000001 0.000001 0.000005 -0.000001 0.000001 0.000005 -0.000001 0.000001 0.000005 -0.000001 0.000001 -0.000002 0.000001 0.000000 0.000002 0.000000 0.000000 0.000002 0.000000 0.000000 0.000002 0.000000 
